<svg data-v-fde0c5aa="" xmlns="http://www.w3.org/2000/svg" viewBox="0 0 300 300" class="iconLeft"><!----><defs data-v-fde0c5aa=""><!----></defs><rect data-v-fde0c5aa="" fill="#ECE3F7" x="0" y="0" width="300px" height="300px" class="logo-background-square"></rect><defs data-v-fde0c5aa=""><!----></defs><g data-v-fde0c5aa="" id="9eb85977-324c-4225-b461-18eb6f40ad62" fill="#2A1B3C"><path d=""></path></g><defs data-v-fde0c5aa=""><linearGradient data-v-fde0c5aa="" gradientTransform="rotate(25)" id="3c84f3dc-71d6-42be-a1ad-77e22a68c794" x1="0%" y1="0%" x2="100%" y2="0%"><stop data-v-fde0c5aa="" offset="0%" stop-color="#3616AC" stop-opacity="1"></stop><stop data-v-fde0c5aa="" offset="100%" stop-color="#E09BED" stop-opacity="1"></stop></linearGradient></defs><g data-v-fde0c5aa="" id="23395d87-2560-4c81-bcbc-3252eeb4aa0a" stroke="none" fill="url(#3c84f3dc-71d6-42be-a1ad-77e22a68c794)"><path d="M84.223 77.444c-1.778-.838-3.212-1.922-4.354-3.258-1.141-1.337-1.995-2.936-2.565-4.842-.705-2.363-.979-4.719-.979-7.101-.002-3.984.777-8.039 1.567-12.185.538-2.846 1.201-5.781 1.204-8.911 0-.963-.064-1.944-.217-2.941v-.001c-.983-6.407-3.411-11.845-6.942-16.42-3.531-4.577-8.147-8.291-13.497-11.364-5.54-3.18-11.926-4.792-18.303-4.792-5.438 0-10.875 1.174-15.772 3.577-1.257.618-3.046 1.732-5.078 3.378-3.041 2.468-6.599 6.126-9.414 11.024C7.058 28.503 4.998 34.651 5 41.993c-.002 8.045 2.468 17.485 8.952 28.272l.024.041.028.041c.488.698 1.144 1.476 1.946 2.338 2.799 3.002 7.384 7.009 11.968 10.325 8.082 5.74 14.989 5.842 14.989 5.842C41.024 86.729 28.901 72.616 27.718 65c0 0 10.604 23.049 26.586 28.371-1.266-3.296-2.52-4.806-3.473-6.394-1.428-2.366-3.206-5.239-4.615-8.326-1.412-3.086-2.435-6.371-2.431-9.504.001-1.901.365-3.745 1.235-5.537 2.652-5.172 6.056-9.907 9.446-14.777 2.053-2.954 4.316-5.895 6.209-9.115 1.437-2.445 2.657-5.066 3.373-7.964 1.972 3.531 2.793 7.239 2.797 11.186 0 1.551-.128 3.136-.364 4.752-.117.842-.38 1.85-.386 3.033a5.77 5.77 0 0 0 .401 2.176c1.077 2.682 1.526 5.261 1.527 7.806.005 5.292-1.984 10.491-4.549 15.725-.611 1.242-1.401 2.099-2.353 2.678-.954.575-2.099.882-3.473.884-.278 0-.565-.013-.861-.039-1.925-.172-3.855-.361-5.868-.551l-4.47-.42 3.408 2.923c2.634 2.258 5.751 3.723 9.044 4.622 3.295.899 6.774 1.239 10.194 1.24 5.987-.001 11.805-1.044 16.145-2.08 4.339-1.038 7.199-2.074 7.236-2.088L95 82.317s-8.791-3.937-10.777-4.873zm-15.126 7.471c-3.23.001-6.466-.325-9.443-1.139a24.227 24.227 0 0 1-2.838-.968c.279.019.559.038.833.038 1.803.002 3.499-.417 4.949-1.295 1.451-.875 2.627-2.198 3.439-3.865 2.622-5.366 4.834-10.962 4.839-16.978a23.505 23.505 0 0 0-1.733-8.869 2.916 2.916 0 0 1-.196-1.112c-.006-.712.199-1.593.356-2.619a35.66 35.66 0 0 0 .394-5.165c.005-4.813-1.131-9.519-3.925-13.878l-.001-.001c-.155-.234-.363-.599-.766-.974a2.951 2.951 0 0 0-1.694-.751l-1.407-.158-.167 1.406c-.423 3.547-1.75 6.67-3.522 9.689-1.77 3.016-3.984 5.905-6.09 8.931-3.373 4.851-6.867 9.692-9.652 15.123l-.007.014-.006.012c-1.082 2.215-1.529 4.525-1.527 6.795.011 4.999 2.091 9.804 4.28 13.866.906 1.675 1.832 3.213 2.659 4.582-2.264-1.705-4.361-3.798-6.271-6.116-4.658-5.644-10.194-12.576-12.539-18.081-1.174-2.753-4.264-8.828-4.264-8.828.007.029-.478 6.542 2.083 14.031 1.282 3.745 8.432 14.801 9.445 16.308a40.035 40.035 0 0 1-3.923-2.276c-3.222-2.096-6.736-4.837-9.698-7.433a72.349 72.349 0 0 1-3.925-3.684c-1.083-1.104-1.929-2.081-2.411-2.769-6.249-10.423-8.515-19.315-8.517-26.758.003-9.069 3.362-16.065 7.289-21.12a37.638 37.638 0 0 1 5.943-6.074c1.873-1.521 3.535-2.543 4.537-3.033 4.475-2.197 9.487-3.285 14.516-3.285 5.896-.001 11.806 1.498 16.883 4.415 5.106 2.933 9.409 6.42 12.659 10.633 3.248 4.216 5.463 9.157 6.382 15.111.129.838.184 1.671.184 2.508.003 2.715-.599 5.473-1.154 8.378-.785 4.138-1.615 8.365-1.617 12.718 0 2.601.301 5.247 1.098 7.917.667 2.239 1.71 4.217 3.129 5.878 1.417 1.661 3.203 2.997 5.308 3.987 1.281.603 3.115 1.38 4.758 2.059-4.208 1.181-11.407 2.836-18.67 2.83zM24.365 9.205z"></path></g><!----></svg>