<svg data-v-423bf9ae="" xmlns="http://www.w3.org/2000/svg" viewBox="0 0 347 90" class="iconLeft"><!----><!----><!----><g data-v-423bf9ae="" id="6dbf6d08-3a72-4caa-8d3a-d3400078deb0" fill="#000000" transform="matrix(6.615215217067638,0,0,6.615215217067638,111.6545830091265,-17.811466775331603)"><path d="M4.46 9.42L4.46 9.42Q4.52 9.47 4.63 9.47L4.63 9.47L4.63 9.47Q4.75 9.47 4.83 9.43L4.83 9.43L4.83 9.43Q4.66 8.39 4.59 8.20L4.59 8.20L4.59 8.20Q4.52 8.00 4.37 8.00L4.37 8.00L4.37 8.00Q4.30 8.00 4.20 8.04L4.20 8.04L4.46 9.42ZM3.11 11.47L3.11 11.47L3.11 11.47Q3.04 11.57 3.04 11.65L3.04 11.65L3.04 11.65Q3.04 11.85 3.41 11.98L3.41 11.98L3.41 11.98Q3.79 12.11 4.32 12.15L4.32 12.15L4.32 12.15Q4.41 13.13 4.51 13.27L4.51 13.27L4.51 13.27Q4.38 13.52 3.79 13.78L3.79 13.78L3.79 13.78Q3.21 14.03 2.47 14.03L2.47 14.03L2.47 14.03Q1.49 14.03 0.79 13.61L0.79 13.61L0.79 13.61Q0.10 13.19 0.10 12.53L0.10 12.53L0.10 12.53Q0.10 12.35 0.13 12.22L0.13 12.22L1.59 5.71L1.59 5.71Q2.13 5.36 2.89 5.16L2.89 5.16L2.89 5.16Q3.65 4.96 4.47 4.96L4.47 4.96L4.47 4.96Q5.65 4.96 6.48 5.36L6.48 5.36L6.48 5.36Q7.43 5.81 7.64 6.67L7.64 6.67L9.19 13.11L9.19 13.11Q8.48 14.03 6.88 14.03L6.88 14.03L6.88 14.03Q6.10 14.03 5.56 13.75L5.56 13.75L5.56 13.75Q5.02 13.47 4.93 12.95L4.93 12.95L4.78 12.12L4.78 12.12Q5.19 12.11 5.57 11.96L5.57 11.96L5.57 11.96Q5.95 11.81 5.95 11.65L5.95 11.65L5.95 11.65Q5.95 11.54 5.87 11.47L5.87 11.47L5.87 11.47Q5.61 11.66 5.23 11.75L5.23 11.75L5.23 11.75Q4.85 11.85 4.53 11.85L4.53 11.85L4.53 11.85Q3.61 11.85 3.11 11.47ZM9.41 12.65L9.41 12.65L9.41 5.80L9.41 5.80Q9.41 5.44 9.98 5.21L9.98 5.21L9.98 5.21Q10.55 4.97 11.32 4.97L11.32 4.97L11.32 4.97Q11.76 4.97 12.14 5.08L12.14 5.08L12.14 5.08Q12.53 5.18 12.74 5.35L12.74 5.35L12.74 5.35Q13.02 5.70 13.25 6.07L13.25 6.07L13.25 6.07Q13.48 6.44 14.29 7.79L14.29 7.79L14.29 7.79Q14.37 7.79 14.43 7.75L14.43 7.75L14.43 7.75Q14.49 7.70 14.49 7.60L14.49 7.60L14.49 7.60Q14.49 7.50 14.32 7.21L14.32 7.21L13.58 5.94L13.58 5.56L13.58 5.56Q13.93 5.28 14.43 5.12L14.43 5.12L14.43 5.12Q14.93 4.96 15.46 4.96L15.46 4.96L15.46 4.96Q16.33 4.96 16.86 5.28L16.86 5.28L16.86 5.28Q17.49 5.65 17.49 6.45L17.49 6.45L17.49 12.93L17.49 12.93Q17.49 13.51 16.93 13.78L16.93 13.78L16.93 13.78Q16.45 14.02 15.65 14.02L15.65 14.02L15.65 14.02Q15.20 14.02 14.78 13.92L14.78 13.92L14.78 13.92Q14.36 13.83 14.12 13.68L14.12 13.68L14.12 13.68Q13.64 13.06 13.16 12.28L13.16 12.28L12.46 11.12L12.46 11.12Q12.26 11.15 12.26 11.33L12.26 11.33L12.26 11.33Q12.26 11.45 12.46 11.78L12.46 11.78L13.32 13.16L13.32 13.52L13.32 13.52Q12.52 14.03 11.53 14.03L11.53 14.03L11.53 14.03Q10.53 14.03 9.97 13.67L9.97 13.67L9.97 13.67Q9.41 13.31 9.41 12.65ZM17.99 12.65L17.99 12.65L17.99 5.80L17.99 5.80Q17.99 5.44 18.56 5.21L18.56 5.21L18.56 5.21Q19.13 4.97 19.91 4.97L19.91 4.97L19.91 4.97Q20.34 4.97 20.73 5.08L20.73 5.08L20.73 5.08Q21.12 5.18 21.32 5.35L21.32 5.35L21.32 5.35Q21.60 5.70 21.83 6.07L21.83 6.07L21.83 6.07Q22.07 6.44 22.88 7.79L22.88 7.79L22.88 7.79Q22.96 7.79 23.02 7.75L23.02 7.75L23.02 7.75Q23.08 7.70 23.08 7.60L23.08 7.60L23.08 7.60Q23.08 7.50 22.91 7.21L22.91 7.21L22.17 5.94L22.17 5.56L22.17 5.56Q22.52 5.28 23.02 5.12L23.02 5.12L23.02 5.12Q23.52 4.96 24.05 4.96L24.05 4.96L24.05 4.96Q24.92 4.96 25.45 5.28L25.45 5.28L25.45 5.28Q26.07 5.65 26.07 6.45L26.07 6.45L26.07 12.93L26.07 12.93Q26.07 13.51 25.51 13.78L25.51 13.78L25.51 13.78Q25.03 14.02 24.23 14.02L24.23 14.02L24.23 14.02Q23.79 14.02 23.37 13.92L23.37 13.92L23.37 13.92Q22.95 13.83 22.71 13.68L22.71 13.68L22.71 13.68Q22.22 13.06 21.75 12.28L21.75 12.28L21.05 11.12L21.05 11.12Q20.85 11.15 20.85 11.33L20.85 11.33L20.85 11.33Q20.85 11.45 21.05 11.78L21.05 11.78L21.90 13.16L21.90 13.52L21.90 13.52Q21.11 14.03 20.11 14.03L20.11 14.03L20.11 14.03Q19.12 14.03 18.56 13.67L18.56 13.67L18.56 13.67Q17.99 13.31 17.99 12.65ZM30.75 9.42L30.75 9.42Q30.81 9.47 30.93 9.47L30.93 9.47L30.93 9.47Q31.04 9.47 31.12 9.43L31.12 9.43L31.12 9.43Q30.95 8.39 30.88 8.20L30.88 8.20L30.88 8.20Q30.81 8.00 30.66 8.00L30.66 8.00L30.66 8.00Q30.59 8.00 30.50 8.04L30.50 8.04L30.75 9.42ZM29.40 11.47L29.40 11.47L29.40 11.47Q29.33 11.57 29.33 11.65L29.33 11.65L29.33 11.65Q29.33 11.85 29.71 11.98L29.71 11.98L29.71 11.98Q30.08 12.11 30.61 12.15L30.61 12.15L30.61 12.15Q30.70 13.13 30.80 13.27L30.80 13.27L30.80 13.27Q30.67 13.52 30.08 13.78L30.08 13.78L30.08 13.78Q29.50 14.03 28.76 14.03L28.76 14.03L28.76 14.03Q27.78 14.03 27.08 13.61L27.08 13.61L27.08 13.61Q26.39 13.19 26.39 12.53L26.39 12.53L26.39 12.53Q26.39 12.35 26.42 12.22L26.42 12.22L27.88 5.71L27.88 5.71Q28.42 5.36 29.18 5.16L29.18 5.16L29.18 5.16Q29.94 4.96 30.76 4.96L30.76 4.96L30.76 4.96Q31.94 4.96 32.77 5.36L32.77 5.36L32.77 5.36Q33.72 5.81 33.93 6.67L33.93 6.67L35.49 13.11L35.49 13.11Q34.77 14.03 33.17 14.03L33.17 14.03L33.17 14.03Q32.39 14.03 31.85 13.75L31.85 13.75L31.85 13.75Q31.31 13.47 31.22 12.95L31.22 12.95L31.07 12.12L31.07 12.12Q31.48 12.11 31.86 11.96L31.86 11.96L31.86 11.96Q32.25 11.81 32.25 11.65L32.25 11.65L32.25 11.65Q32.25 11.54 32.16 11.47L32.16 11.47L32.16 11.47Q31.90 11.66 31.52 11.75L31.52 11.75L31.52 11.75Q31.14 11.85 30.82 11.85L30.82 11.85L30.82 11.85Q29.90 11.85 29.40 11.47Z"></path></g><defs data-v-423bf9ae=""><linearGradient data-v-423bf9ae="" gradientTransform="rotate(25)" id="c70334a9-93c3-4d31-8dba-da01a3f2b0e5" x1="0%" y1="0%" x2="100%" y2="0%"><stop data-v-423bf9ae="" offset="0%" style="stop-color: rgb(180, 55, 61); stop-opacity: 1;"></stop><stop data-v-423bf9ae="" offset="100%" style="stop-color: rgb(178, 58, 203); stop-opacity: 1;"></stop></linearGradient></defs><g data-v-423bf9ae="" id="05437f82-ab1d-47dc-a64e-8469567d738a" transform="matrix(1.0257344885274753,0,0,1.0257344885274753,-4.286724389560284,-5.144859281206365)" stroke="none" fill="url(#c70334a9-93c3-4d31-8dba-da01a3f2b0e5)"><path d="M84.223 77.444c-1.778-.838-3.212-1.922-4.354-3.258-1.141-1.337-1.995-2.936-2.565-4.842-.705-2.363-.979-4.719-.979-7.101-.002-3.984.777-8.039 1.567-12.185.538-2.846 1.201-5.781 1.204-8.911 0-.963-.064-1.944-.217-2.941v-.001c-.983-6.407-3.411-11.845-6.942-16.42-3.531-4.577-8.147-8.291-13.497-11.364-5.54-3.18-11.926-4.792-18.303-4.792-5.438 0-10.875 1.174-15.772 3.577-1.257.618-3.046 1.732-5.078 3.378-3.041 2.468-6.599 6.126-9.414 11.024C7.058 28.503 4.998 34.651 5 41.993c-.002 8.045 2.468 17.485 8.952 28.272l.024.041.028.041c.488.698 1.144 1.476 1.946 2.338 2.799 3.002 7.384 7.009 11.968 10.325 8.082 5.74 14.989 5.842 14.989 5.842C41.024 86.729 28.901 72.616 27.718 65c0 0 10.604 23.049 26.586 28.371-1.266-3.296-2.52-4.806-3.473-6.394-1.428-2.366-3.206-5.239-4.615-8.326-1.412-3.086-2.435-6.371-2.431-9.504.001-1.901.365-3.745 1.235-5.537 2.652-5.172 6.056-9.907 9.446-14.777 2.053-2.954 4.316-5.895 6.209-9.115 1.437-2.445 2.657-5.066 3.373-7.964 1.972 3.531 2.793 7.239 2.797 11.186 0 1.551-.128 3.136-.364 4.752-.117.842-.38 1.85-.386 3.033a5.77 5.77 0 0 0 .401 2.176c1.077 2.682 1.526 5.261 1.527 7.806.005 5.292-1.984 10.491-4.549 15.725-.611 1.242-1.401 2.099-2.353 2.678-.954.575-2.099.882-3.473.884-.278 0-.565-.013-.861-.039-1.925-.172-3.855-.361-5.868-.551l-4.47-.42 3.408 2.923c2.634 2.258 5.751 3.723 9.044 4.622 3.295.899 6.774 1.239 10.194 1.24 5.987-.001 11.805-1.044 16.145-2.08 4.339-1.038 7.199-2.074 7.236-2.088L95 82.317s-8.791-3.937-10.777-4.873zm-15.126 7.471c-3.23.001-6.466-.325-9.443-1.139a24.227 24.227 0 0 1-2.838-.968c.279.019.559.038.833.038 1.803.002 3.499-.417 4.949-1.295 1.451-.875 2.627-2.198 3.439-3.865 2.622-5.366 4.834-10.962 4.839-16.978a23.505 23.505 0 0 0-1.733-8.869 2.916 2.916 0 0 1-.196-1.112c-.006-.712.199-1.593.356-2.619a35.66 35.66 0 0 0 .394-5.165c.005-4.813-1.131-9.519-3.925-13.878l-.001-.001c-.155-.234-.363-.599-.766-.974a2.951 2.951 0 0 0-1.694-.751l-1.407-.158-.167 1.406c-.423 3.547-1.75 6.67-3.522 9.689-1.77 3.016-3.984 5.905-6.09 8.931-3.373 4.851-6.867 9.692-9.652 15.123l-.007.014-.006.012c-1.082 2.215-1.529 4.525-1.527 6.795.011 4.999 2.091 9.804 4.28 13.866.906 1.675 1.832 3.213 2.659 4.582-2.264-1.705-4.361-3.798-6.271-6.116-4.658-5.644-10.194-12.576-12.539-18.081-1.174-2.753-4.264-8.828-4.264-8.828.007.029-.478 6.542 2.083 14.031 1.282 3.745 8.432 14.801 9.445 16.308a40.035 40.035 0 0 1-3.923-2.276c-3.222-2.096-6.736-4.837-9.698-7.433a72.349 72.349 0 0 1-3.925-3.684c-1.083-1.104-1.929-2.081-2.411-2.769-6.249-10.423-8.515-19.315-8.517-26.758.003-9.069 3.362-16.065 7.289-21.12a37.638 37.638 0 0 1 5.943-6.074c1.873-1.521 3.535-2.543 4.537-3.033 4.475-2.197 9.487-3.285 14.516-3.285 5.896-.001 11.806 1.498 16.883 4.415 5.106 2.933 9.409 6.42 12.659 10.633 3.248 4.216 5.463 9.157 6.382 15.111.129.838.184 1.671.184 2.508.003 2.715-.599 5.473-1.154 8.378-.785 4.138-1.615 8.365-1.617 12.718 0 2.601.301 5.247 1.098 7.917.667 2.239 1.71 4.217 3.129 5.878 1.417 1.661 3.203 2.997 5.308 3.987 1.281.603 3.115 1.38 4.758 2.059-4.208 1.181-11.407 2.836-18.67 2.83zM24.365 9.205z"></path></g><!----></svg>