<svg data-v-fde0c5aa="" xmlns="http://www.w3.org/2000/svg" viewBox="0 0 300 300" class="iconLeft"><!----><defs data-v-fde0c5aa=""><!----></defs><rect data-v-fde0c5aa="" fill="transparent" x="0" y="0" width="300px" height="300px" class="logo-background-square"></rect><defs data-v-fde0c5aa=""><!----></defs><g data-v-fde0c5aa="" id="f3222003-9bf8-4b8a-8159-3d15395dc02e" fill="#000000" transform="matrix(4.301849443378073,0,0,4.301849443378073,104.14398941208648,117.09085032226056)"><path d="M6.24 12.07L5.21 12.07L5.21 12.29L8.79 12.29L8.79 12.07L7.80 12.07L4.97 2.91L4.93 2.91C4.41 2.91 4.27 3.28 4.10 3.77L1.82 10.36C1.47 11.38 1.09 12.07 0.01 12.07L0.01 12.29L4.16 12.29L4.16 12.07L3.92 12.07C2.97 12.07 2.00 12.05 2.00 11.10C2.00 10.85 2.04 10.53 2.16 10.22L2.60 8.90L5.28 8.90ZM3.98 4.93L4.06 4.93L5.21 8.68L2.69 8.68ZM16.42 5.19C16.42 3.84 16.90 3.42 18.26 3.42L18.26 3.19L14.25 3.19L14.25 3.42L14.35 3.42C15.71 3.42 16.14 3.84 16.14 5.19L16.14 10.61L16.06 10.61L12.35 4.24C11.91 3.51 11.59 3.19 10.64 3.19L9.18 3.19L9.18 3.40C9.77 3.40 10.35 3.53 10.65 4.05L10.65 10.29C10.65 11.65 10.18 12.07 8.82 12.07L8.82 12.29L12.82 12.29L12.82 12.07L12.73 12.07C11.37 12.07 10.93 11.65 10.93 10.29L10.93 4.62L10.99 4.62L14.69 10.98C15.25 11.94 15.53 12.39 16.20 12.39L16.42 12.39ZM25.69 5.19C25.69 3.84 26.17 3.42 27.52 3.42L27.52 3.19L23.52 3.19L23.52 3.42L23.62 3.42C24.98 3.42 25.41 3.84 25.41 5.19L25.41 10.61L25.33 10.61L21.62 4.24C21.18 3.51 20.86 3.19 19.91 3.19L18.45 3.19L18.45 3.40C19.04 3.40 19.61 3.53 19.92 4.05L19.92 10.29C19.92 11.65 19.45 12.07 18.09 12.07L18.09 12.29L22.09 12.29L22.09 12.07L21.99 12.07C20.64 12.07 20.20 11.65 20.20 10.29L20.20 4.62L20.26 4.62L23.95 10.98C24.51 11.94 24.79 12.39 25.47 12.39L25.69 12.39ZM33.68 12.07L32.65 12.07L32.65 12.29L36.23 12.29L36.23 12.07L35.24 12.07L32.41 2.91L32.37 2.91C31.85 2.91 31.71 3.28 31.54 3.77L29.26 10.36C28.91 11.38 28.53 12.07 27.45 12.07L27.45 12.29L31.60 12.29L31.60 12.07L31.36 12.07C30.41 12.07 29.44 12.05 29.44 11.10C29.44 10.85 29.48 10.53 29.60 10.22L30.04 8.90L32.72 8.90ZM31.42 4.93L31.50 4.93L32.65 8.68L30.13 8.68Z"></path></g><defs data-v-fde0c5aa=""><linearGradient data-v-fde0c5aa="" gradientTransform="rotate(25)" id="409240e9-ad46-4065-a75b-2b8927ba4e35" x1="0%" y1="0%" x2="100%" y2="0%"><stop data-v-fde0c5aa="" offset="0%" stop-color="#8C48D2" stop-opacity="1"></stop><stop data-v-fde0c5aa="" offset="100%" stop-color="#CF705A" stop-opacity="1"></stop></linearGradient></defs><g data-v-fde0c5aa="" id="12bc920c-282a-4e21-ac4d-7f9b1f5da4e1" stroke="none" fill="url(#409240e9-ad46-4065-a75b-2b8927ba4e35)" transform="matrix(0.6796923628457554,0,0,0.6796923628457554,32.118286904104195,116.01538704335343)"><path d="M85.092 44.467c-2.811-12.398-8.129-21.879-16.259-28.986-3.807-3.329-7.734-5.893-11.671-7.623C52.847 5.962 48.37 5 43.855 5h-.007c-3.366 0-6.834.534-10.307 1.586-4.887 1.483-9.321 4.35-12.484 8.072-3.488 4.101-5.33 9.045-5.327 14.298 0 1.455.144 2.945.427 4.428.506 2.643 1.207 5.23 1.885 7.733.557 2.056 1.084 3.999 1.514 5.978.327 1.5.486 2.841.486 4.099-.012 2.967-.891 5.373-2.764 7.57-.254.3-.482.636-.788 1.159-1.051 1.817-2.206 4.591-3.091 7.424-1.194 3.837-1.8 7.403-1.803 10.6.001 2.617.424 4.935 1.258 6.889.979 2.305 2.606 4.178 4.704 5.416l2.249 1.334.785.465-.037-.912-.105-2.606a56.688 56.688 0 0 1-.048-2.3c0-3.593.377-6.722 1.119-9.3.94-3.25 2.421-5.632 4.527-7.284 1.665-1.301 3.728-2.133 6.304-2.542.63-.101 1.27-.191 1.918-.282 2.301-.323 4.68-.658 7.081-1.53 1.159-.425 2.046-.905 2.794-1.51a5.922 5.922 0 0 0 1.987-2.92c.273-.906.707-1.766 1.363-2.705.704-1.01 1.591-1.982 2.529-3.012.283-.311.571-.626.858-.947.35-.394.673-.775.977-1.152a31.928 31.928 0 0 0 1.247 3.126c1.306 2.806 2.924 5.068 5.246 7.332 1.616 1.578 3.429 3.041 5.528 4.735.603.487 1.23.993 1.884 1.526 15.538 12.264 7.941 24.52 7.862 24.642l.792.59 1.725-2.026c2.725-3.199 4.837-6.708 6.456-10.726a59.205 59.205 0 0 0 4.306-22.267c0-4.994-.61-10.213-1.813-15.514zm-25.19 10.5a133.833 133.833 0 0 1 4.575 4.553c1.541 1.618 2.765 3.034 3.538 4.095 2.071 2.837 3.57 5.362 4.602 7.791-1.199-1.63-2.68-3.167-4.428-4.593-.623-.508-1.219-.989-1.789-1.449-3.082-2.489-5.309-4.287-7.074-6.424-1.102-1.33-1.975-2.721-2.75-4.378-.548-1.174-1.053-2.52-1.531-4.086a230.078 230.078 0 0 1 4.857 4.491zm13.067 7.134c-.982-1.439-2.434-3.107-4.441-5.098-5.189-5.143-16.368-13.296-16.883-13.577-4.508-2.455-9.179-5.201-12.807-8.636-3.91-3.709-6.202-7.721-7.212-12.627l-.555-2.71-.194-.947-.656.71-1.881 2.037c-2.669 2.898-4.202 6.816-4.207 10.752 0 2.165.479 4.262 1.386 6.066.626 1.238.903 2.141.9 2.927 0 .301-.037.591-.114.891a8.75 8.75 0 0 0-.28 2.189c0 1.786.537 3.549 1.643 5.389.437.725.892 1.414 1.332 2.08.561.849 1.09 1.651 1.539 2.458.921 1.645 1.855 2.796 2.942 3.623a6.624 6.624 0 0 0 4.071 1.382c1.481-.003 3.016-.396 4.87-1.236.384-.175.767-.362 1.148-.562a12.395 12.395 0 0 0-1.108 2.559c-.132.427-.348.735-.743 1.062-.39.32-.958.617-1.685.881-1.956.718-4.107 1.024-6.384 1.347-.627.089-1.261.179-1.9.279-2.05.325-3.831.87-5.447 1.667-3.017 1.479-5.362 3.843-6.971 7.026-1.572 3.099-2.478 7.08-2.698 11.85a7.756 7.756 0 0 1-.259-.544c-.632-1.473-.952-3.286-.951-5.388-.005-4.166 1.272-8.491 2.034-10.698a38.882 38.882 0 0 1 1.653-4.084c.246-.513.485-.971.691-1.326.19-.332.343-.543.377-.583 2.465-2.855 3.704-6.238 3.691-10.062 0-1.528-.187-3.134-.573-4.907-.465-2.126-1.033-4.226-1.583-6.257-.686-2.532-1.333-4.923-1.796-7.356a19.963 19.963 0 0 1-.359-3.716c.003-4.33 1.531-8.421 4.421-11.83 2.691-3.171 6.482-5.617 10.675-6.887 3.111-.943 6.204-1.421 9.194-1.422 4.037.001 7.887.83 11.769 2.534 3.58 1.572 7.177 3.927 10.69 6.999 7.49 6.555 12.412 15.373 15.049 26.959 1.141 5.023 1.719 9.959 1.719 14.67a55.444 55.444 0 0 1-3.709 20.029v-.119c-.004-5.653-2.097-11.473-6.398-17.794zm-36.754-6.449l-.021.274h-.009l.011-.276c-.83-.071-1.402-.304-2.038-.83-.693-.584-1.372-1.553-2.015-2.88-.561-1.148-1.184-2.213-1.786-3.244a56.69 56.69 0 0 1-1.233-2.181c-.756-1.437-1.08-2.715-.99-3.909.035-.464.13-.911.29-1.367a7.872 7.872 0 0 0 .426-2.025c.147-2.002-.489-3.792-1.13-5.28-.638-1.474-.906-3.179-.774-4.932.136-1.845.732-3.737 1.701-5.442 1.383 4.522 3.814 8.573 7.406 12.346 4.477 4.711 10.108 8.379 15.034 11.446.114.069.215.134.304.192l-.073.067c-3.154 2.86-6.704 5.727-11.286 7.328-1.554.547-2.838.787-3.817.713z"></path></g><!----></svg>