<svg data-v-423bf9ae="" xmlns="http://www.w3.org/2000/svg" viewBox="0 0 229.240502063226 60" class="font"><!----><!----><!----><g data-v-423bf9ae="" id="bbe1fd8d-ad3e-4f9f-95b5-19815cba931a" fill="black" transform="matrix(6.329113592966793,0,0,6.329113592966793,-0.06328979094354281,-18.41772038350981)"><path d="M6.24 12.07L5.21 12.07L5.21 12.29L8.79 12.29L8.79 12.07L7.80 12.07L4.97 2.91L4.93 2.91C4.41 2.91 4.27 3.28 4.10 3.77L1.82 10.36C1.47 11.38 1.09 12.07 0.01 12.07L0.01 12.29L4.16 12.29L4.16 12.07L3.92 12.07C2.97 12.07 2.00 12.05 2.00 11.10C2.00 10.85 2.04 10.53 2.16 10.22L2.60 8.90L5.28 8.90ZM3.98 4.93L4.06 4.93L5.21 8.68L2.69 8.68ZM16.42 5.19C16.42 3.84 16.90 3.42 18.26 3.42L18.26 3.19L14.25 3.19L14.25 3.42L14.35 3.42C15.71 3.42 16.14 3.84 16.14 5.19L16.14 10.61L16.06 10.61L12.35 4.24C11.91 3.51 11.59 3.19 10.64 3.19L9.18 3.19L9.18 3.40C9.77 3.40 10.35 3.53 10.65 4.05L10.65 10.29C10.65 11.65 10.18 12.07 8.82 12.07L8.82 12.29L12.82 12.29L12.82 12.07L12.73 12.07C11.37 12.07 10.93 11.65 10.93 10.29L10.93 4.62L10.99 4.62L14.69 10.98C15.25 11.94 15.53 12.39 16.20 12.39L16.42 12.39ZM25.69 5.19C25.69 3.84 26.17 3.42 27.52 3.42L27.52 3.19L23.52 3.19L23.52 3.42L23.62 3.42C24.98 3.42 25.41 3.84 25.41 5.19L25.41 10.61L25.33 10.61L21.62 4.24C21.18 3.51 20.86 3.19 19.91 3.19L18.45 3.19L18.45 3.40C19.04 3.40 19.61 3.53 19.92 4.05L19.92 10.29C19.92 11.65 19.45 12.07 18.09 12.07L18.09 12.29L22.09 12.29L22.09 12.07L21.99 12.07C20.64 12.07 20.20 11.65 20.20 10.29L20.20 4.62L20.26 4.62L23.95 10.98C24.51 11.94 24.79 12.39 25.47 12.39L25.69 12.39ZM33.68 12.07L32.65 12.07L32.65 12.29L36.23 12.29L36.23 12.07L35.24 12.07L32.41 2.91L32.37 2.91C31.85 2.91 31.71 3.28 31.54 3.77L29.26 10.36C28.91 11.38 28.53 12.07 27.45 12.07L27.45 12.29L31.60 12.29L31.60 12.07L31.36 12.07C30.41 12.07 29.44 12.05 29.44 11.10C29.44 10.85 29.48 10.53 29.60 10.22L30.04 8.90L32.72 8.90ZM31.42 4.93L31.50 4.93L32.65 8.68L30.13 8.68Z"></path></g><!----><!----></svg>