<svg xmlns="http://www.w3.org/2000/svg" version="1.1" xmlns:xlink="http://www.w3.org/1999/xlink" xmlns:svgjs="http://svgjs.dev/svgjs" viewBox="0 0 800 800"><defs><linearGradient x1="50%" y1="0%" x2="50%" y2="100%" id="ccchaos-grad"><stop stop-color="hsl(37, 99%, 67%)" stop-opacity="1" offset="0%"></stop><stop stop-color="hsl(316, 73%, 52%)" stop-opacity="1" offset="100%"></stop></linearGradient></defs><g stroke-width="3.5" stroke="url(#ccchaos-grad)" fill="none" stroke-linecap="round"><path d="M420.93 129.54Q439.69 140.18 457.48 153.99 474.06 169.67 489.18 185.4 502.71 199.31 514.57 209.86 532.66 217.57 546.63 217.9 556.71 224.1 566.8 242.38 572.96 258.42 580.43 276.16 575.06 292.22 578.09 308.28 588.97 324.34 605.72 340.4 625.25 356.46 644.01 372.52 658.56 388.58 666.23 404.65 665.63 420.71 656.86 436.77 641.53 452.83 622.44 468.89 603.09 484.95 587.01 501.01 577.15 517.07 575.31 533.13 556.67 524.25 542.49 529.22 537.06 543.7 531.92 564.04 526.65 587.35 520.83 610.01 514.13 628.46 506.25 640.09 496.95 643.9 486.11 640.75 473.66 633.19 459.62 624.89 444.11 619.75 427.28 620.99 414.52 614.95 400.36 616.51 384.91 623.27 368.33 631.67 350.84 637.79 332.69 638.34 314.14 631.4 295.47 616.87 276.93 596.43 258.76 573.15 241.16 550.69 224.28 532.47 208.22 520.83 193.01 516.51 172.17 513.48 168.66 492.57 173.55 476.68 179.43 460.8 185.22 444.91 189.88 429.03 192.54 413.14 192.72 397.26 190.39 381.38 185.97 365.49 180.28 349.61 174.34 333.72 169.26 317.84 165.96 301.96 165.03 286.07 166.66 270.19 181.41 253.13 196.97 239 213.31 229.16 230.37 223.91 248.02 222.49 266.11 223.21 284.42 223.98 302.71 222.71 320.74 217.91 338.23 208.94 354.95 196.18 370.68 180.88 385.24 164.86 398.49 150.03 415.66 133.76 420.93 129.54" stroke-dasharray="1 6" transform="rotate(0, 400, 400)" opacity="0.05"></path><path d="M425.83 138.99Q442.61 149.22 458.26 162.48 472.6 177.63 485.5 193.04 496.91 206.97 506.82 217.96 521.99 227.06 534.07 227.96 544 231.1 554.83 244.63 561.71 258.44 569.99 274.94 567.16 290.21 572.01 305.48 583.71 320.75 600.29 336.02 618.94 351.28 636.49 366.55 649.98 381.82 657.13 397.09 656.71 412.36 648.81 427.63 634.75 442.9 616.93 458.17 598.36 473.44 582.18 488.71 571.13 503.98 567.09 519.24 555.63 513.7 545.95 511.62 537.83 515.23 530.97 525.56 525.04 542.14 519.67 563.09 514.49 585.54 509.13 606.21 503.25 622.17 496.55 631.48 488.78 633.67 479.75 629.81 469.34 622.39 457.48 614.69 444.21 610.15 429.59 611.54 415.72 605.57 400.63 606.61 384.46 612.63 367.44 620.55 349.78 626.92 331.72 628.69 313.53 623.86 295.44 611.95 277.68 593.99 260.42 572.35 243.83 550.17 228.01 530.63 213.01 516.28 198.86 508.49 179.85 501.43 177.74 480.59 182.94 465.48 188.91 450.38 194.64 435.27 199.16 420.17 201.7 405.06 201.83 389.96 199.53 374.85 195.2 359.75 189.56 344.64 183.56 329.54 178.24 314.43 174.47 299.33 172.91 284.22 173.82 269.12 187.64 254.04 202.23 242.58 217.6 235.45 233.72 232.41 250.51 232.34 267.82 233.48 285.51 233.88 303.36 231.8 321.16 226.09 338.67 216.45 355.65 203.42 371.88 188.29 387.15 172.75 401.31 158.55 420.02 143.02 425.83 138.99" stroke-dasharray="4 8" transform="rotate(4.04, 400, 400)" opacity="0.09"></path><path d="M428.92 148.45Q443.6 158.26 457.08 170.97 469.26 185.56 480.11 200.59 489.62 214.48 497.87 225.82 510.79 236.39 521.6 238.24 531.83 238.99 543.65 248.04 551.29 259.27 560.35 273.83 559.86 288.32 566.27 302.82 578.57 317.32 594.85 331.81 612.55 346.31 628.92 360.81 641.39 375.3 648.02 389.8 647.77 404.3 640.69 418.79 627.87 433.29 611.32 447.79 593.62 462.29 577.55 476.78 565.61 491.28 559.66 505.78 547.45 502.33 536.94 503.38 527.97 510.3 520.34 523.29 513.78 541.31 507.98 562.25 502.64 583.37 497.42 601.83 485.79 619.27 472.01 618.82 463.34 611.61 453.45 604.53 442.28 600.56 429.84 602.08 415.01 596.19 399.2 596.75 382.59 602.05 365.39 609.44 347.83 615.91 330.14 618.68 312.53 615.75 295.22 606.33 278.39 590.95 262.17 571.32 246.67 550.02 231.96 529.88 218.07 513.48 204.98 502.57 192.63 497.77 180.93 498.45 182.95 484.09 187 469.73 192.46 455.37 198.47 441.01 204.09 426.65 208.44 412.29 210.85 397.93 210.93 383.57 208.68 369.21 204.45 354.85 198.89 340.49 192.88 326.13 187.35 311.77 183.17 297.42 181 283.06 181.16 268.7 194.04 256.14 207.64 247.49 222.01 242.91 237.13 241.71 252.94 242.57 269.37 243.77 286.28 243.57 303.52 240.57 320.89 233.97 338.19 223.72 355.21 210.53 371.71 195.64 387.51 180.64 402.41 167.07 422.59 152.28 428.92 148.45" stroke-dasharray="0 3" transform="rotate(8.08, 400, 400)" opacity="0.13"></path><path d="M429.99 157.89Q442.56 167.29 453.96 179.44 464.16 193.45 473.19 208.05 481.1 221.82 488.02 233.44 506.93 246.39 520.01 246.62 526.19 248.07 533.35 252.78 541.73 261.27 551.52 273.37 553.13 287.13 560.83 300.89 573.51 314.65 589.35 328.41 606.07 342.16 621.28 355.92 632.77 369.68 638.92 383.44 638.82 397.2 632.5 410.96 620.86 424.72 605.58 438.48 588.85 452.24 573.08 466 560.52 479.76 552.99 493.52 540.15 492.88 528.89 497.22 519.13 507.14 510.71 522.2 503.43 540.98 497.07 561.31 491.36 580.72 486.03 596.84 475.22 610.25 463.2 607.81 455.94 600.88 447.72 594.42 438.42 591 428 592.64 412.48 586.85 396.24 586.96 379.49 591.55 362.41 598.37 345.24 604.81 328.15 608.36 311.35 607.09 295 600.01 279.23 587.22 264.14 569.88 249.8 549.98 236.24 529.96 223.46 512.23 211.42 498.74 200.05 490.61 189.26 487.96 191.96 474.3 196.45 460.64 202.11 446.98 208.1 433.32 213.57 419.66 217.74 406 220.01 392.34 220.04 378.68 217.84 365.03 213.72 351.37 208.27 337.71 202.28 324.05 196.61 310.39 192.07 296.73 189.31 283.08 188.73 269.42 200.66 259.69 213.28 253.81 226.61 251.45 240.67 251.66 255.45 253.02 270.89 253.93 286.89 252.94 303.35 248.96 320.09 241.51 336.96 230.76 353.76 217.49 370.3 202.93 386.37 188.5 401.79 175.57 423.19 161.54 429.99 157.89" stroke-dasharray="10 6" transform="rotate(12.12, 400, 400)" opacity="0.16"></path><path d="M428.97 167.35Q439.53 176.33 449.03 187.91 457.51 201.32 465.01 215.44 471.65 229.01 477.58 240.82 487.92 254.29 497.91 258.92 509.7 257.09 523.96 258.94 533.04 264.74 543.47 274.1 546.93 287.16 555.67 300.22 568.53 313.28 583.81 326.35 599.52 339.41 613.57 352.47 624.14 365.53 629.81 378.6 629.85 391.66 624.25 404.72 613.75 417.78 599.73 430.85 584.04 443.91 568.73 456.97 555.82 470.04 547.02 483.1 533.68 485.64 521.8 493.14 511.31 505.56 502.13 522 494.11 540.85 487.09 560.05 480.86 577.45 475.21 591.16 464.62 600.87 453.67 596.78 440.16 585.82 424.2 583.18 408.31 577.5 391.98 577.21 375.4 581.11 358.76 587.34 342.24 593.63 326 597.76 310.19 597.91 294.94 592.97 280.34 582.71 266.45 567.81 253.31 549.75 240.92 530.5 229.25 512.22 218.24 496.85 207.82 485.82 197.9 479.79 201.22 466.78 206.09 453.78 211.87 440.77 217.79 427.77 223.09 414.76 227.05 401.76 229.16 388.75 229.15 375.75 227 362.74 223.02 349.74 217.71 336.73 211.78 323.73 206.01 310.72 201.16 297.72 197.86 284.72 196.56 271.71 207.56 264.88 219.18 261.51 231.46 260.96 244.45 262.09 258.14 263.52 272.5 263.86 287.49 261.92 303 256.95 318.94 248.72 335.16 237.57 351.5 224.34 367.8 210.17 383.87 196.36 399.54 184.09 421.79 170.81 428.97 167.35" stroke-dasharray="5 10" transform="rotate(16.16, 400, 400)" opacity="0.20"></path><path d="M425.92 176.79Q434.68 185.36 442.56 196.36 449.6 209.15 455.92 222.75 461.63 236.05 466.89 247.95 476.81 262.75 487.09 269.07 499.96 267.07 515.5 266.52 525.21 269.86 536.18 276.41 541.22 288.82 550.73 301.23 563.57 313.64 578.2 326.06 592.87 338.47 605.81 350.88 615.48 363.29 620.7 375.71 620.87 388.12 615.94 400.53 606.53 412.94 593.75 425.36 579.14 437.77 564.45 450.18 551.45 462.6 541.69 475.01 528.01 480.74 515.63 491.01 504.52 505.28 494.64 522.38 485.91 540.67 478.19 558.29 471.35 573.47 465.22 584.79 446.35 585.37 432.41 574.35 425.9 571.92 418.7 573.74 402.81 568.19 386.75 567.52 370.67 570.77 354.75 576.37 339.13 582.4 323.93 586.92 309.27 588.24 295.24 585.21 281.88 577.36 269.23 564.98 257.3 549.08 246.06 531.17 235.47 513.09 225.47 496.63 215.97 483.34 206.86 474.23 210.74 461.83 215.91 449.43 221.74 437.03 227.54 424.63 232.62 412.23 236.36 399.83 238.32 387.43 238.25 375.03 236.18 362.63 232.34 350.23 227.2 337.83 221.37 325.43 215.56 313.03 210.46 300.63 210.73 279.98 225.41 270.47 236.66 271.21 248.55 272.77 261.11 273.89 274.35 273.41 288.22 270.44 302.68 264.51 317.65 255.6 333.02 244.17 348.67 231.06 364.46 217.36 380.25 204.2 395.86 192.61 418.52 180.07 425.92 176.79" stroke-dasharray="9 1" transform="rotate(20.200000000000003, 400, 400)" opacity="0.24"></path><path d="M421.05 186.25Q428.3 194.39 434.86 204.82 440.81 216.96 446.28 230 451.39 242.96 456.29 254.84 466.29 270.84 477.18 278.91 491.21 277.42 507.98 275.38 518.21 276.65 529.61 280.57 535.94 292.38 545.97 304.19 558.62 315.99 572.51 327.8 586.13 339.61 597.99 351.42 606.8 363.23 611.6 375.04 611.87 386.85 607.57 398.66 599.19 410.46 587.62 422.27 574.13 434.08 560.19 445.89 547.32 457.7 536.92 469.51 523.07 478.15 510.33 490.57 498.73 505.94 488.25 522.98 478.86 540.14 470.47 555.85 462.98 568.71 456.26 577.71 444.73 581.13 434.15 574.75 423.49 565.7 411.9 564.28 396.38 558.87 380.92 557.88 365.65 560.51 350.7 565.46 336.18 571.15 322.19 575.88 308.79 578.13 296.05 576.75 283.97 571.13 272.58 561.25 261.84 547.72 251.73 531.62 242.19 514.41 233.14 497.68 224.5 482.91 216.17 471.29 220.52 459.45 225.89 447.62 231.71 435.78 237.34 423.94 242.17 412.1 245.68 400.27 247.47 388.43 247.36 376.59 245.35 364.75 241.67 352.91 236.72 341.08 231.04 329.24 225.24 317.4 219.95 305.57 219.05 286.93 232.03 280.47 242.25 281.95 253.05 283.47 264.48 283.95 276.55 282.49 289.25 278.46 302.56 271.62 316.42 262.15 330.78 250.56 345.53 237.69 360.57 224.52 375.78 212.04 391.02 201.13 413.6 189.34 421.05 186.25" stroke-dasharray="3 9" transform="rotate(24.24, 400, 400)" opacity="0.28"></path><path d="M414.71 195.7Q420.77 203.42 426.36 213.26 431.57 224.75 436.51 237.19 441.33 249.73 446.15 261.51 456.59 278.51 468.34 288.31 483.51 287.91 501.36 285.31 512.01 285.02 523.7 286.67 531.02 297.92 541.34 309.17 553.65 320.41 566.73 331.66 579.29 342.91 590.1 354.16 598.1 365.4 602.49 376.65 602.85 387.9 599.14 399.15 591.72 410.39 581.33 421.64 568.99 432.89 555.91 444.14 543.38 455.39 532.63 466.63 518.75 477.61 505.82 491.45 493.88 507.15 482.94 523.47 472.98 539.04 463.97 552.6 448.87 567.98 435.84 572.21 425.05 563.66 414.79 554.46 409.64 552.9 404.27 554.83 389.47 549.58 374.92 548.3 360.71 550.33 346.94 554.65 333.69 559.91 321.02 564.68 308.96 567.63 297.53 567.64 286.75 564.02 276.59 556.54 267.01 545.46 257.97 531.51 249.41 515.77 241.26 499.53 233.42 484.13 225.83 470.78 230.54 459.47 236.03 448.16 241.77 436.85 247.18 425.54 251.74 414.23 254.99 402.91 256.62 391.6 256.46 380.29 254.54 368.98 251.03 357.67 246.29 346.36 240.78 335.05 235.04 323.74 229.65 312.43 238 294.18 258.04 293.95 268.34 293.53 279.24 290.98 290.73 285.91 302.83 278.27 315.49 268.37 328.7 256.76 342.37 244.23 356.45 231.65 370.83 219.88 385.41 209.66 407.39 198.61 414.71 195.7" stroke-dasharray="5 3" transform="rotate(28.28, 400, 400)" opacity="0.32"></path><path d="M407.34 205.15Q412.56 212.45 417.52 221.71 422.3 232.53 427.02 244.33 431.8 256.39 436.75 267.95 442 278.3 447.66 286.84 460.99 296.07 476.44 298.94 485.58 297.7 495.61 296.02 506.55 294.74 518.38 294.66 526.42 305.38 536.81 316.09 548.64 326.81 560.84 337.53 572.35 348.25 582.16 358.96 589.38 369.68 593.39 380.4 593.82 391.12 590.65 401.83 584.15 412.55 574.89 423.27 563.7 433.99 551.56 444.7 539.55 455.42 528.73 466.14 514.99 478.72 502.04 493.17 489.91 508.47 478.65 523.49 468.25 537.13 458.72 548.41 442.45 559.76 428.3 561.36 416.81 552.88 406.29 544.59 401.32 543.42 396.33 545.38 382.56 540.3 369.18 538.76 356.23 540.25 343.8 543.92 331.92 548.7 320.63 553.38 309.93 556.79 299.82 557.92 290.3 556.04 281.32 550.77 272.84 542.14 264.81 530.54 257.17 516.71 249.84 501.64 242.75 486.45 235.82 472.25 240.8 461.44 246.33 450.64 251.91 439.83 257.06 429.02 261.32 418.22 264.31 407.41 265.77 396.6 265.57 385.8 263.73 374.99 260.4 364.18 255.89 353.38 250.6 342.57 244.98 331.76 239.54 320.96 245.77 304.53 263.56 303.98 272.77 302.49 282.51 298.81 292.8 292.78 303.65 284.48 315.06 274.3 327.02 262.8 339.49 250.7 352.42 238.76 365.75 227.73 379.4 218.2 400.32 207.88 407.34 205.15" stroke-dasharray="11 1" transform="rotate(32.32, 400, 400)" opacity="0.35"></path><path d="M399.46 214.6Q404.18 221.47 408.81 230.14 413.46 240.29 418.2 251.42 423.15 262.94 428.39 274.19 434.03 284.55 440.15 293.45 454.48 304.37 470.87 309.18 480.38 308.63 490.67 307.17 501.75 305.48 513.59 304.27 522.08 314.48 532.33 324.69 543.55 334.9 554.84 345.1 565.32 355.31 574.15 365.52 580.64 375.73 584.28 385.94 584.78 396.14 582.1 406.35 576.46 416.56 568.29 426.77 558.24 436.98 547.11 447.19 535.77 457.4 525.12 467.61 511.68 480.96 498.86 495.22 486.72 509.46 475.29 522.75 464.61 534.23 454.69 543.22 437.41 550.9 422.17 550.33 409.77 542.12 398.63 534.77 384.86 532.5 364.12 529.28 352.58 530.26 341.57 533.31 331.11 537.56 321.2 542.01 303.26 546.46 286.82 543.94 279.36 537.63 272.26 528.45 265.46 516.84 258.88 503.49 252.47 489.26 246.14 475.1 251.28 464.79 256.75 454.47 262.12 444.16 266.96 433.85 270.9 423.53 273.62 413.22 274.92 402.91 274.68 392.6 272.92 382.28 269.79 371.97 265.53 361.66 260.48 351.35 255.03 341.03 249.62 330.72 253.99 315.11 269.68 313.34 277.85 310.69 286.46 305.93 295.57 299.05 305.18 290.25 315.32 279.95 325.99 268.69 337.16 257.11 348.82 245.87 360.94 235.58 373.46 226.74 392.89 217.15 399.46 214.6" stroke-dasharray="9 8" transform="rotate(36.36, 400, 400)" opacity="0.39"></path><path d="M391.61 224.05Q396.12 230.51 400.71 238.59 405.44 248.05 410.4 258.49 415.65 269.4 421.29 280.26 427.37 290.49 433.96 299.61 441.1 307.19 448.86 312.96 457.26 316.82 466.32 318.82 476.05 319.2 486.46 318.36 497.53 316.79 509.23 315.1 517.91 324.81 527.86 334.51 538.37 344.22 548.72 353.93 558.17 363.64 566.08 373.34 571.88 383.05 575.18 392.76 575.73 402.47 573.5 412.18 568.65 421.88 561.51 431.59 552.59 441.3 542.51 451.01 531.97 460.72 521.72 470.43 508.72 483.7 496.19 497.06 484.19 509.72 472.78 520.97 461.97 530.19 451.81 536.97 433.74 541.45 417.55 539.16 404.17 531.4 392.18 525 378.77 523.14 360.13 519.84 350.06 520.36 340.49 522.81 331.44 526.5 322.88 530.62 307.38 536.01 293.11 536.07 286.58 531.87 280.32 525.05 274.27 515.8 268.37 504.55 262.55 491.91 256.77 478.6 261.95 468.78 267.28 458.97 272.37 449.15 276.88 439.34 280.48 429.52 282.93 419.7 284.06 409.89 283.78 400.07 282.12 390.26 279.19 380.44 275.19 370.63 270.41 360.81 265.18 351 259.87 341.18 262.65 325.53 276.42 321.85 283.61 318.05 291.17 312.31 299.14 304.74 307.56 295.62 316.44 285.36 325.8 274.46 335.65 263.49 345.97 252.98 356.76 243.46 367.99 235.3 385.62 226.43 391.61 224.05" stroke-dasharray="9 9" transform="rotate(40.400000000000006, 400, 400)" opacity="0.43"></path><path d="M384.35 233.5Q388.91 239.53 393.64 247.03 398.63 255.8 403.91 265.52 409.55 275.79 415.61 286.15 422.12 296.13 429.14 305.31 436.68 313.28 444.78 319.75 453.44 324.55 462.69 327.63 472.51 329.09 482.88 329.16 493.8 328.19 505.22 326.6 513.85 335.81 523.33 345.01 533.06 354.22 542.45 363.42 550.92 372.63 557.95 381.83 563.11 391.04 566.07 400.24 566.66 409.45 564.84 418.66 560.72 427.86 554.56 437.07 546.73 446.27 537.72 455.48 528.08 464.68 518.4 473.89 505.97 486.32 493.88 498.2 482.2 508.91 470.96 517.96 460.21 524.96 449.97 529.69 440.28 532.12 431.13 532.39 414.75 527.53 399.95 520.46 387.48 516.16 376.16 517.03 366.61 512.55 357.53 510.47 340.98 513.06 325.76 519.27 312.49 525.17 300.18 527.21 289.02 519.1 278.26 504.4 272.97 493.78 267.67 481.99 272.79 472.69 277.89 463.38 282.66 454.07 286.8 444.77 290.06 435.46 292.24 426.16 293.2 416.85 292.89 407.54 291.32 398.24 288.59 388.93 284.88 379.62 280.4 370.32 275.43 361.01 270.28 351.71 271.76 335.37 283.79 329.35 290.08 324.48 296.67 317.92 303.58 309.87 310.87 300.61 318.55 290.55 326.65 280.13 335.18 269.83 344.16 260.1 353.57 251.34 363.42 243.87 379.02 235.7 384.35 233.5" stroke-dasharray="10 8" transform="rotate(44.44, 400, 400)" opacity="0.47"></path><path d="M378.19 242.96Q387.97 255.49 398.96 272.55 411.45 291.9 425.68 310.6 441.82 325.77 459.9 335.48 479.84 339.23 501.47 338.21 518.73 355.58 536.05 372.96 549.76 390.33 556.96 407.71 556.13 425.08 547.43 442.46 532.71 459.83 515.09 477.21 491.84 498.15 469.71 513.56 449.04 521.4 430.09 521.7 412.96 516.61 397.68 509.83 384.16 505.61 372.22 507.57 356.54 501.14 342.48 502.21 329.87 507.98 318.47 514.44 308 517.46 298.13 513.94 288.52 502.65 278.83 484.51 288.57 466.96 296.72 449.41 301.53 431.87 301.99 414.32 298.01 396.78 290.42 379.23 280.84 361.69 271.29 344.14 281.34 342.8 291.8 335.78 302.98 322.82 315.18 305.28 328.65 285.74 343.58 267.25 360.09 252.46 378.19 242.96 378.19 242.96 378.19 242.96" stroke-dasharray="2 3" transform="rotate(48.48, 400, 400)" opacity="0.51"></path><path d="M373.55 252.4Q383.98 263.94 395.68 279.56 408.82 297.54 423.54 315.5 439.89 331.04 457.82 342.24 477.22 348.21 497.88 349.28 514.01 365.58 529.51 381.87 541.52 398.17 547.86 414.46 547.36 430.76 540.12 447.05 527.46 463.35 511.69 479.64 489.91 496.57 468.86 507.71 448.86 512.17 430.14 510.65 412.87 505.32 397.13 499.32 382.94 495.99 370.22 498.13 357.31 491.86 345.7 492.12 335.19 496.82 325.54 502.87 316.5 506.94 307.78 506.22 299.09 499.08 290.18 485.48 299.3 469.06 306.62 452.63 310.81 436.21 311.1 419.79 307.43 403.37 300.48 386.94 291.52 370.52 282.19 354.1 291.21 350.23 300.42 341.07 310.1 327.03 320.51 309.68 331.88 291.32 344.42 274.43 358.28 261.06 373.55 252.4 373.55 252.4 373.55 252.4" stroke-dasharray="4 7" transform="rotate(52.52, 400, 400)" opacity="0.54"></path><path d="M370.76 261.86Q381.83 272.41 394.11 286.59 407.69 303.09 422.61 320.09 438.85 335.59 456.32 347.87 474.89 355.83 494.36 359.25 509.14 374.41 522.8 389.57 533.22 404.73 538.75 419.89 538.55 435.05 532.63 450.21 521.93 465.38 508.11 480.54 487.98 493.2 468.26 500.42 449.23 502.11 431.1 499.33 414.05 494.08 398.2 488.91 383.61 486.42 370.3 488.67 359.85 482.63 350.36 482.17 341.64 485.8 333.46 491.22 317.76 494.69 301.68 484.4 310.03 469.16 316.5 453.92 320.08 438.68 320.2 423.45 316.86 408.21 310.56 392.97 302.3 377.73 293.37 362.49 301.47 356.14 309.61 345.25 317.99 330.64 326.83 313.87 336.36 296.89 346.75 281.65 364.47 265.77 370.76 261.86" stroke-dasharray="7 2" transform="rotate(56.56, 400, 400)" opacity="0.58"></path><path d="M370.02 271.3Q381.59 280.87 394.22 293.63 407.94 308.59 422.73 324.39 438.53 339.47 455.24 352.35 472.73 361.92 490.81 367.62 504.07 381.59 515.94 395.56 524.85 409.53 529.65 423.5 529.68 437.48 524.95 451.45 516.09 465.42 504.25 479.4 485.9 487.93 467.73 491.78 449.95 491.36 432.74 487.83 416.28 482.93 400.69 478.64 386.07 476.9 372.46 479.23 356.59 474.21 342.08 479.58 324.39 476.08 326.35 452.96 329.33 438.96 329.31 424.96 326.28 410.95 320.65 396.95 313.16 382.95 304.79 368.95 312.09 360.46 319.3 348.4 326.57 333.76 334.1 317.93 342.05 302.5 350.58 288.92 364.94 274.82 370.02 271.3" stroke-dasharray="3 8" transform="rotate(60.599999999999994, 400, 400)" opacity="0.62"></path><path d="M371.37 280.76Q383.18 289.36 395.86 300.7 409.39 314.08 423.72 328.5 438.77 342.79 454.44 355.77 470.62 366.42 487.15 374.05 498.78 386.78 508.91 399.51 516.44 412.24 520.54 424.96 520.77 437.69 517.1 450.42 509.93 463.15 500.05 475.88 483.59 480.75 467.12 481.93 450.82 480.06 434.83 476.25 419.3 471.9 404.35 468.49 390.07 467.43 376.55 469.77 363.6 464.34 351.25 468.05 334.99 468.51 336.15 449.61 338.57 436.9 338.42 424.18 335.71 411.47 330.75 398.76 324.07 386.04 316.4 373.33 323 363.26 329.42 350.66 335.77 336.5 342.21 321.93 348.85 308.17 355.84 296.27 367.34 283.88 371.37 280.76" stroke-dasharray="10 7" transform="rotate(64.64, 400, 400)" opacity="0.66"></path><path d="M374.73 290.21Q386.45 297.86 398.82 307.81 411.81 319.58 425.34 332.47 439.35 345.65 453.75 358.23 468.43 369.37 483.29 378.38 493.24 389.82 501.72 401.26 507.97 412.7 511.43 424.14 511.81 435.58 509.07 447.02 503.44 458.47 495.44 469.91 480.91 471.81 466.27 471.08 451.62 468.4 437.1 464.7 422.81 461.04 408.85 458.49 395.31 458.01 382.28 460.32 363.36 457.52 349.34 463.97 342.58 460.89 345.89 443.99 347.78 432.59 347.52 421.2 345.14 409.81 340.84 398.42 335.01 387.02 328.16 375.63 334.13 364.7 339.87 352.21 345.47 339 351.02 325.95 356.61 313.94 362.36 303.68 371.55 292.95 374.73 290.21" stroke-dasharray="9 10" transform="rotate(68.68, 400, 400)" opacity="0.70"></path><path d="M379.85 299.66Q391.12 306.38 402.83 314.97 414.93 325.13 427.37 336.4 440.08 348.21 453 359.92 466.05 370.91 479.15 380.61 487.43 390.74 494.36 400.86 499.44 410.98 502.33 421.11 502.81 431.23 500.86 441.36 496.61 451.48 490.36 461.61 477.78 461.38 465.03 459.49 452.17 456.55 439.3 453.26 426.5 450.37 413.84 448.62 393.05 447.4 380.09 443.97 357.4 448.46 355.57 436.38 356.97 426.33 356.63 416.28 354.56 406.22 350.91 396.17 345.94 386.12 339.99 376.06 345.39 365.05 350.55 353.29 355.52 341.42 360.37 330.08 365.15 319.85 369.94 311.18 377.33 302.04 379.85 299.66" stroke-dasharray="11 7" transform="rotate(72.72, 400, 400)" opacity="0.73"></path><path d="M386.38 309.11Q407.52 322.19 429.53 340.34 452.05 361.04 474.65 380.96 486.83 398.55 493.22 416.15 492.48 433.74 484.75 451.34 463.25 447.47 441.17 442.04 418.93 438.91 396.96 441.42 388.89 434.82 380.13 435.08 367.77 433.45 365.73 409.86 360.94 392.43 351.83 375 361.34 354.13 370.05 334.38 382.33 313.94 386.38 309.11" stroke-dasharray="7 1" transform="rotate(76.76, 400, 400)" opacity="0.77"></path><path d="M393.87 318.56Q412.54 329.48 431.58 344.4 450.74 361.86 469.75 379.83 479.13 394.77 484.12 409.7 483.93 424.64 478.6 439.58 460.85 435.31 442.47 431.11 423.73 429.35 404.9 431.97 389.04 426.76 370.53 432.1 374.69 417.32 374.84 402.54 370.94 387.77 363.62 372.99 372.12 355.02 379.87 338.94 390.46 322.52 393.87 318.56" stroke-dasharray="7 0" transform="rotate(80.80000000000001, 400, 400)" opacity="0.81"></path><path d="M401.78 328.01Q417.5 336.85 433.27 348.64 448.95 362.64 464.38 377.75 471.26 390.06 475.01 402.37 475.22 414.69 471.87 427 457.71 423.34 443 420.55 427.87 419.94 412.48 422.52 398 416.67 381.38 419.35 384.11 407.17 383.94 394.99 380.89 382.82 375.29 370.64 382.75 356.24 389.59 343.83 398.84 331.15 401.78 328.01" stroke-dasharray="3 1" transform="rotate(84.84, 400, 400)" opacity="0.85"></path><path d="M409.57 337.47Q422.02 344.31 434.38 353.16 446.56 363.67 458.5 375.36 463.23 385.09 465.91 394.83 460.06 408.2 442.58 410.43 431.03 410.69 419.2 413.06 406.3 407.08 391.89 407.17 393.43 397.53 393.05 387.9 390.78 378.26 386.77 368.63 393.11 358.04 399 349.12 407.02 339.84 409.57 337.47" stroke-dasharray="1 0" transform="rotate(88.88, 400, 400)" opacity="0.89"></path><path d="M416.69 346.91Q434.69 358.01 452.09 373.3 456.8 387.75 456.62 402.21 441.08 400.82 424.57 403.62 413.88 397.46 402 396.24 402.15 381.91 397.99 367.59 412.28 350.89 416.69 346.91" stroke-dasharray="6 3" transform="rotate(92.92, 400, 400)" opacity="0.92"></path><path d="M422.64 356.37Q434.06 363.27 445.12 372.25 443.06 386.76 428.22 394.16 415.73 383.52 408.89 368.09 419.33 358.74 422.64 356.37" stroke-dasharray="5 5" transform="rotate(96.96, 400, 400)" opacity="0.96"></path></g></svg>